<?xml version="1.0" standalone="no"?><!DOCTYPE svg PUBLIC "-//W3C//DTD SVG 1.1//EN" "http://www.w3.org/Graphics/SVG/1.1/DTD/svg11.dtd"><svg class="icon" width="200px" height="200.00px" viewBox="0 0 1024 1024" version="1.1" xmlns="http://www.w3.org/2000/svg"><path d="M805.828571 75.771429c-46.057143-7.542857-120.228571-15.314286-230.514285-15.314286-116.8 0-198.857143 8.685714-249.257143 16.571428-35.657143 5.6-61.942857 36.8-61.942857 73.485715v747.657143c0 36.571429 26.171429 67.542857 61.6 73.371428 46.057143 7.542857 120.228571 15.314286 230.514285 15.314286 116.8 0 198.857143-8.685714 249.257143-16.571429 35.657143-5.6 61.942857-36.8 61.942857-73.485714V149.142857c0-36.571429-26.171429-67.542857-61.6-73.371428z" fill="#FFE0B2" /><path d="M238.057143 460.457143h-0.685714c-14.4 0-26.057143-11.657143-26.057143-26.057143V297.485714c0-14.4 11.657143-26.057143 26.057143-26.057143 8.228571 0 15.542857 6.628571 15.542857 14.857143v159.085715c0.114286 8.342857-6.628571 15.085714-14.857143 15.085714z m0-14.971429zM238.057143 675.085714h-0.685714c-14.4 0-26.057143-11.657143-26.057143-26.057143v-107.428571c0-14.4 11.657143-26.057143 26.057143-26.057143 8.228571 0 15.542857 6.628571 15.542857 14.857143v129.6c0.114286 8.457143-6.628571 15.085714-14.857143 15.085714z m0-14.857143z" fill="#1C4F69" /><path d="M238.057143 832.114286h-0.685714c-14.4 0-26.057143-11.657143-26.057143-26.057143v-107.428572c0-14.4 11.657143-26.057143 26.057143-26.057142 8.228571 0 15.542857 6.628571 15.542857 14.857142v129.6c0.114286 8.457143-6.628571 15.085714-14.857143 15.085715z m0-14.857143z" fill="#1C4F69" /><path d="M542.742857 1001.714286c-119.085714 0-197.714286-8.571429-242.742857-15.885715-44.457143-7.085714-76.8-44.914286-76.8-89.942857V129.485714c0-45.257143 32.457143-83.085714 77.142857-89.942857 50.971429-7.885714 137.828571-17.257143 262.285714-17.257143 119.085714 0 197.714286 8.571429 242.742858 15.885715 44.571429 7.085714 76.914286 44.914286 76.914285 89.828571v766.514286c0 45.257143-32.457143 83.085714-77.142857 89.942857-50.971429 8-137.828571 17.257143-262.4 17.257143z m20-949.714286c-122.628571 0-207.885714 9.142857-257.714286 16.8-30.057143 4.685714-52 30.171429-52 60.571429V896c0 30.285714 21.714286 55.771429 51.771429 60.571429 44 7.085714 121.028571 15.428571 238.057143 15.428571 122.628571 0 207.885714-9.142857 257.714286-16.914286 30.057143-4.685714 52-30.171429 52-60.571428V128c0-30.285714-21.714286-55.771429-51.771429-60.571429-44-6.971429-121.028571-15.428571-238.057143-15.428571z" fill="#1C4F69" /><path d="M561.714286 74.285714c117.371429 0 191.085714 9.142857 232.114285 16.914286 19.428571 3.657143 33.6 20.685714 33.6 40.571429v757.257142c0 20.114286-14.285714 37.142857-33.942857 40.571429-46.857143 8-128.342857 17.828571-249.714285 17.828571-117.371429 0-191.085714-9.142857-232.114286-16.914285-19.428571-3.657143-33.6-20.685714-33.6-40.571429V132.8c0-20.114286 14.285714-37.142857 33.942857-40.571429C358.857143 84 440.342857 74.285714 561.714286 74.285714m0-9.714285c-123.885714 0-206.285714 10.171429-251.428572 18.057142-24.342857 4.228571-41.942857 25.485714-41.942857 50.171429v757.257143c0 24.457143 17.371429 45.6 41.485714 50.057143 41.142857 7.657143 115.542857 17.028571 233.942858 17.028571 123.885714 0 206.285714-10.171429 251.428571-18.057143 24.342857-4.228571 41.942857-25.485714 41.942857-50.171428V131.657143c0-24.457143-17.371429-45.6-41.485714-50.057143-41.142857-7.771429-115.428571-17.028571-233.942857-17.028571zM868 460.457143c-8.228571 0-15.542857-6.628571-15.542857-14.857143V286.4c0-8.228571 6.628571-14.857143 14.857143-14.857143h0.685714c14.4 0 26.057143 11.657143 26.057143 26.057143v136.914286c0 14.285714-11.657143 25.942857-26.057143 25.942857zM868 743.314286c-8.228571 0-15.542857-6.628571-15.542857-14.857143V569.257143c0-8.228571 6.628571-14.857143 14.857143-14.857143h0.685714c14.4 0 26.057143 11.657143 26.057143 26.057143v136.914286c0 14.285714-11.657143 25.942857-26.057143 25.942857z" fill="#1C4F69" /><path d="M306.171429 229.6v-22.171429c0-9.371429 7.542857-16.914286 16.914285-16.914285h459.428572c9.371429 0 16.914286 7.542857 16.914285 16.914285v594.742858c0 9.371429-7.542857 16.914286-16.914285 16.914285h-459.428572c-9.371429 0-16.914286-7.542857-16.914285-16.914285v-572.571429z" fill="#FFFFFF" /><path d="M325.942857 250.857143v-21.371429c0-9.028571 7.314286-16.342857 16.228572-16.342857h441.028571c8.914286 0 16.228571 7.314286 16.228571 16.342857v575.314286c0 9.028571-7.314286 16.342857-16.228571 16.342857H342.171429c-8.914286 0-16.228571-7.314286-16.228572-16.342857V250.857143z" fill="#FFB74D" /><path d="M782.514286 824.114286h-459.428572c-12 0-21.828571-9.828571-21.828571-21.828572V207.428571c0-12 9.828571-21.828571 21.828571-21.828571h459.428572c12 0 21.828571 9.828571 21.828571 21.828571v594.742858c0 12.114286-9.828571 21.942857-21.828571 21.942857z m-459.542857-628.571429c-6.628571 0-11.885714 5.371429-11.885715 11.885714v594.742858c0 6.628571 5.371429 11.885714 11.885715 11.885714h459.428571c6.628571 0 11.885714-5.371429 11.885714-11.885714V207.428571c0-6.628571-5.371429-11.885714-11.885714-11.885714h-459.428571z" fill="#1C4F69" /></svg>