<?xml version="1.0" standalone="no"?><!DOCTYPE svg PUBLIC "-//W3C//DTD SVG 1.1//EN" "http://www.w3.org/Graphics/SVG/1.1/DTD/svg11.dtd"><svg class="icon" width="200px" height="200.00px" viewBox="0 0 1024 1024" version="1.1" xmlns="http://www.w3.org/2000/svg"><path fill="#ffffff" d="M960 83.2c0-19.2-12.8-32-32-32h-704C134.4 51.2 64 128 64 211.2v595.2c0 89.6 70.4 160 160 160h704c19.2 0 32-12.8 32-32v-147.2c0-19.2-12.8-32-32-32s-32 19.2-32 38.4v115.2H224c-51.2 0-96-44.8-96-96s44.8-96 96-96h704c19.2 0 32-12.8 32-32V83.2zM128 684.8V211.2c0-51.2 44.8-96 96-96H896v531.2H224c-32 6.4-70.4 12.8-96 38.4z" /></svg>